<?xml version="1.0" encoding="UTF-8"?>
<svg version="1.1" xmlns="http://www.w3.org/2000/svg" width="858" height="479">
<path d="M0 0 C283.14 0 566.28 0 858 0 C858 158.07 858 316.14 858 479 C574.86 479 291.72 479 0 479 C0 320.93 0 162.86 0 0 Z " fill="#F9EAD5" transform="translate(0,0)"/>
<path d="M0 0 C8.98087929 -0.07006052 17.96166194 -0.12309182 26.94275665 -0.15543652 C31.11476924 -0.17097426 35.28659245 -0.19198976 39.45849609 -0.22631836 C43.49802971 -0.25934296 47.53738324 -0.27694193 51.57704163 -0.28463173 C53.10452604 -0.29009911 54.63200262 -0.30077058 56.15940857 -0.31719017 C77.37947678 -0.53586075 96.6876798 3.39478307 113 18 C123.59440442 28.73757205 129.01925358 42.33700749 129.0390625 57.35546875 C129.02617187 58.55816406 129.01328125 59.76085937 129 61 C142.9751665 57.10881027 155.84309489 52.26272151 168.74633789 45.59057617 C173.79369877 43 173.79369877 43 176 43 C176.00586624 44.02650665 176.01173248 45.05301331 176.01777649 46.11062622 C176.07502964 55.79213348 176.14780491 65.47341667 176.23571491 75.15469551 C176.28041152 80.13175965 176.31966929 85.10874207 176.34643555 90.0859375 C176.37247549 94.8906715 176.41288297 99.69509089 176.46318626 104.49962997 C176.47985027 106.33116615 176.49136745 108.16275673 176.49761391 109.99435806 C176.50726007 112.56314193 176.53532513 115.13112178 176.56762695 117.69970703 C176.56619186 118.45424667 176.56475677 119.20878632 176.5632782 119.9861908 C176.66853747 125.91837516 178.19987919 129.86235653 182 134.375 C186.60218495 136.86785018 190.88277812 136.71701487 196 136 C201.82905577 133.47040976 205.20558029 128.56900865 208 123 C208.78415782 119.43084925 208.79860844 116.01849979 208.7265625 112.375 C208.72755951 111.38806152 208.72855652 110.40112305 208.72958374 109.38427734 C208.7249298 107.31013888 208.70563576 105.23598618 208.67236328 103.16210938 C208.62512095 100.00807472 208.6312655 96.85742465 208.64453125 93.703125 C208.63337638 91.67706341 208.61915576 89.65101591 208.6015625 87.625 C208.60338531 86.69349121 208.60520813 85.76198242 208.60708618 84.80224609 C208.44836709 77.38227517 206.81764466 71.04610233 201.6875 65.5 C198.444314 63.68984967 195.67923759 63.28856765 192 63 C192 62.34 192 61.68 192 61 C193.918125 60.84724609 193.918125 60.84724609 195.875 60.69140625 C201.16952818 60.09680592 205.97315502 58.65852504 211 56.9375 C211.90556641 56.63239502 212.81113281 56.32729004 213.74414062 56.01293945 C221.26127151 53.40736071 228.40924589 50.23078367 235.53125 46.69921875 C238.32994699 45.32823543 241.10259181 44.13423988 244 43 C244.00586624 44.1325975 244.01173248 45.26519501 244.01777649 46.43211365 C244.07509567 57.12808542 244.14790534 67.82385568 244.23571491 78.51962185 C244.28036079 84.01786763 244.31962973 89.5160403 244.34643555 95.0144043 C244.37252609 100.32487542 244.41296933 105.63506433 244.46318626 110.94536018 C244.47981609 112.96700583 244.49135448 114.98870024 244.49761391 117.01040459 C244.50729728 119.85155398 244.53540704 122.69198765 244.56762695 125.53295898 C244.56619186 126.36086945 244.56475677 127.18877991 244.5632782 128.04177856 C244.65376823 133.71790209 245.61464255 138.81084639 248 144 C249.90943142 146.036712 249.90943142 146.036712 252.1875 147.0625 C252.90292969 147.44535156 253.61835937 147.82820312 254.35546875 148.22265625 C254.89816406 148.47917969 255.44085937 148.73570312 256 149 C253.69919072 151.51807698 251.31544541 153.12464541 248.359375 154.8125 C247.45316406 155.33070313 246.54695312 155.84890625 245.61328125 156.3828125 C244.66839844 156.91648437 243.72351563 157.45015625 242.75 158 C241.82058594 158.53367187 240.89117188 159.06734375 239.93359375 159.6171875 C225.27107152 167.95429349 225.27107152 167.95429349 219 167 C213.7198426 164.10848524 211.95060327 159.43109147 210 154 C209.14999542 151.04788829 208.82118777 148.30075607 208.68359375 145.234375 C208.62075195 143.90019531 208.62075195 143.90019531 208.55664062 142.5390625 C208.51732422 141.61867188 208.47800781 140.69828125 208.4375 139.75 C208.39431641 138.81414062 208.35113281 137.87828125 208.30664062 136.9140625 C208.2008195 134.60951359 208.09873443 132.30486161 208 130 C207.76925781 130.49701416 207.53851562 130.99402832 207.30078125 131.50610352 C204.97575507 136.50020001 202.61253458 141.47460565 200.22265625 146.43798828 C199.10458121 148.78085559 198.01947851 151.1364259 196.9375 153.49609375 C191.7347605 164.49169527 191.7347605 164.49169527 186.9375 166.4375 C184.67578125 166.84375 184.67578125 166.84375 182 167 C180.83855469 167.0928125 179.67710937 167.185625 178.48046875 167.28125 C168.17396397 167.69894016 159.63582706 166.31814431 151.5625 159.625 C143.87837084 152.20746308 140.93018013 144.00457881 140.63110352 133.42382812 C140.61682878 130.95967665 140.616779 128.49541298 140.62890625 126.03125 C140.61597021 124.01990721 140.60301119 122.00856427 140.58873653 119.99723053 C140.55895429 115.08723599 140.56222426 110.17715529 140.56420898 105.26708984 C140.56425043 102.49687352 140.55357972 99.72704399 140.53245544 96.95690918 C140.5138915 94.36363222 140.51174393 91.77016784 140.52870178 89.17687988 C140.45665037 80.64581858 139.4145786 73.24235523 133.9375 66.4375 C131.95818504 64.81311272 131.95818504 64.81311272 129 64 C128.96261719 64.59425781 128.92523438 65.18851562 128.88671875 65.80078125 C127.53036942 82.9014208 120.88932618 97.85329343 108.1328125 109.40625 C96.50308895 119.31491849 83.21142451 123.45111147 68.05859375 123.43359375 C64.61109595 122.94486801 62.72394751 122.15786961 60 120 C58.9609375 117.94921875 58.9609375 117.94921875 58.375 115.6875 C57.27040346 111.84918129 55.82043952 108.56806145 54 105 C53.04797779 102.69713547 52.14002495 100.37887139 51.23071289 98.05883789 C49.82646096 94.56868268 48.35179274 91.11101151 46.86328125 87.65625 C46.58697876 87.01333008 46.31067627 86.37041016 46.02600098 85.70800781 C45.35132709 84.13838812 44.67575632 82.56915398 44 81 C43.90681523 89.78916244 43.83599159 98.57815162 43.79275131 107.36770248 C43.77198522 111.45022942 43.74387205 115.53241534 43.69824219 119.61474609 C43.65438774 123.56350242 43.63078063 127.51193331 43.62049103 131.46091461 C43.61316992 132.95823531 43.59887609 134.45554069 43.57707977 135.95272064 C43.44602616 145.33853158 44.42219244 153.24642958 48 162 C48.33 162.99 48.66 163.98 49 165 C32.83 165 16.66 165 0 165 C1.33333333 161 2.66666667 157 4 153 C4.09927458 151.10943154 4.13931709 149.21554454 4.14717102 147.3223877 C4.15432632 146.13935059 4.16148163 144.95631348 4.16885376 143.73742676 C4.17154266 142.43768921 4.17423157 141.13795166 4.17700195 139.79882812 C4.18326813 138.41723459 4.18991507 137.03564274 4.19691467 135.65405273 C4.21794975 131.11313041 4.22832067 126.57220779 4.23828125 122.03125 C4.24232986 120.46544884 4.24644681 118.89964785 4.25063133 117.33384705 C4.26968655 109.97246262 4.28391348 102.61108821 4.2922433 95.24968386 C4.30199916 86.7689698 4.32827383 78.2885179 4.36874419 69.80789614 C4.39898634 63.24380929 4.41372006 56.67979719 4.41702431 50.11564207 C4.41936677 46.20002832 4.42822066 42.28469451 4.45348549 38.36915588 C4.47691173 34.67873838 4.48094178 30.98878216 4.47072411 27.29830933 C4.46999924 25.31443303 4.48899051 23.3305794 4.50878906 21.34680176 C4.46344681 13.4744131 3.2393985 7.19121501 0 0 Z " fill="#617BF3" transform="translate(342,202)"/>
<path d="M0 0 C3.75841054 5.09067663 3.05128743 10.20220876 2.98623657 16.368927 C2.98977966 17.72126499 2.99555945 19.07359869 3.00340271 20.42591858 C3.01557028 23.33440067 3.01212808 26.24229591 2.99657059 29.15076065 C2.9722079 33.75822648 2.98376943 38.36518111 3.00024414 42.97265625 C3.02473509 51.09963096 3.01894534 59.22637277 3.00643921 67.35336304 C2.98787213 79.56523256 2.99284451 91.77705541 3.0264734 103.98889244 C3.03792635 108.55963286 3.03363078 113.12999814 3.01645303 117.70071721 C3.00849675 120.55837338 3.01284366 123.41592289 3.02016258 126.27357674 C3.02134565 128.2097029 3.00760274 130.14582067 2.99324036 132.08189392 C3.03435717 141.19528871 4.27776939 149.02279343 8.37442017 157.21609497 C-8.12557983 157.21609497 -24.62557983 157.21609497 -41.62557983 157.21609497 C-41.62557983 156.55609497 -41.62557983 155.89609497 -41.62557983 155.21609497 C-40.96557983 155.21609497 -40.30557983 155.21609497 -39.62557983 155.21609497 C-36.60140957 144.69048729 -36.09653019 134.78026333 -35.93807983 123.90359497 C-35.83495483 118.39671997 -35.73182983 112.88984497 -35.62557983 107.21609497 C-50.80557983 107.21609497 -65.98557983 107.21609497 -81.62557983 107.21609497 C-78.09843216 123.08825952 -74.58891957 136.04531892 -66.14120483 149.63015747 C-64.62557983 152.21609497 -64.62557983 152.21609497 -62.62557983 157.21609497 C-78.13557983 157.21609497 -93.64557983 157.21609497 -109.62557983 157.21609497 C-115.83281296 135.54933782 -120.81029287 115.53870091 -120.86581421 92.92532349 C-120.8754878 90.55118324 -120.90657502 88.17792258 -120.93807983 85.8039856 C-121.00507838 76.16298214 -120.11748966 67.57849008 -117.62557983 58.21609497 C-117.43737671 57.44853882 -117.24917358 56.68098267 -117.05526733 55.89016724 C-113.29408463 41.00521322 -105.935198 27.59155713 -95.62557983 16.21609497 C-94.87792358 15.38722778 -94.13026733 14.5583606 -93.35995483 13.70437622 C-69.54189494 -11.38141912 -29.82211047 -20.26211969 0 0 Z " fill="#617BF4" transform="translate(172.62557983398438,209.78390502929688)"/>
<path d="M0 0 C8.19855782 -0.09350758 16.39688543 -0.16416756 24.59584808 -0.20724869 C28.40475061 -0.22794643 32.21328304 -0.25592844 36.02197266 -0.30175781 C39.71139554 -0.34586404 43.40046708 -0.36927018 47.09013367 -0.37950897 C48.48367328 -0.38678629 49.87719808 -0.40098877 51.27058411 -0.42292023 C68.58741973 -0.6841392 83.23025329 2.83710326 96.3125 14.6875 C100.82379705 19.4483975 103.41826891 25.02974686 106 31 C106.495 32.12148438 106.495 32.12148438 107 33.265625 C114.13391624 50.68884352 112.10176525 77.92720687 105.10595703 95.20849609 C100.80482102 104.65981796 94.70435942 115.55440097 84.81640625 119.9765625 C76.99999072 122.65290318 68.42337128 123.43039698 60.5 120.75 C54.87623111 117.93811555 52.66360744 114.93942068 50.4921875 109.09765625 C49.84830078 107.39125977 49.84830078 107.39125977 49.19140625 105.65039062 C48.75699219 104.46638672 48.32257812 103.28238281 47.875 102.0625 C47.21177734 100.29229492 47.21177734 100.29229492 46.53515625 98.48632812 C45.71221118 96.28973607 44.89382978 94.09142484 44.08154297 91.89086914 C43.09133925 89.24414178 42.05400095 86.62178985 41 84 C40.93021982 93.08450427 40.87704738 102.16891502 40.84456348 111.25362968 C40.82896594 115.4728943 40.80783698 119.69197437 40.77368164 123.91113281 C40.74087563 127.9895418 40.72310263 132.06777424 40.71536827 136.14630508 C40.70986261 137.69549459 40.69911227 139.2446754 40.68280983 140.79378891 C40.59642227 149.34972173 40.97890206 156.88352309 44 165 C44.33 166.32 44.66 167.64 45 169 C30.15 169 15.3 169 0 169 C0.99 166.69 1.98 164.38 3 162 C3.98639336 158.28002586 4.12958936 154.79614614 4.14044189 150.95452881 C4.14615204 149.74060959 4.15186218 148.52669037 4.15774536 147.27598572 C4.15899055 145.93887339 4.16011568 144.60176095 4.16113281 143.26464844 C4.16576454 141.84995902 4.17078968 140.43527084 4.17617798 139.02058411 C4.18927013 135.18362186 4.19574075 131.34667709 4.20018864 127.50969601 C4.20312462 125.1096848 4.20723042 122.70967832 4.21169281 120.30966949 C4.2253596 112.79238367 4.23503016 105.2751087 4.2388947 97.75781131 C4.24337303 89.0954651 4.26091384 80.43327687 4.2898953 71.77097869 C4.31154848 65.06505696 4.32160093 58.35917957 4.32293582 51.65322328 C4.32398128 47.65280464 4.32983368 43.65253468 4.34775543 39.65215302 C4.36429913 35.88626055 4.36636133 32.12062751 4.35761642 28.35471153 C4.35648556 26.32516459 4.37015428 24.29562602 4.3843689 22.26612854 C4.35243736 15.24127657 3.73067722 9.48489297 1 3 C0.67 2.01 0.34 1.02 0 0 Z " fill="#627CF3" transform="translate(600,247)"/>
<path d="M0 0 C0.00586624 1.02650665 0.01173248 2.05301331 0.01777649 3.11062622 C0.07502964 12.79213348 0.14780491 22.47341667 0.23571491 32.15469551 C0.28041152 37.13175965 0.31966929 42.10874207 0.34643555 47.0859375 C0.37247549 51.8906715 0.41288297 56.69509089 0.46318626 61.49962997 C0.47985027 63.33116615 0.49136745 65.16275673 0.49761391 66.99435806 C0.50726007 69.56314193 0.53532513 72.13112178 0.56762695 74.69970703 C0.56619186 75.45424667 0.56475677 76.20878632 0.5632782 76.9861908 C0.66853747 82.91837516 2.19987919 86.86235653 6 91.375 C10.60218495 93.86785018 14.88277812 93.71701487 20 93 C25.82905577 90.47040976 29.20558029 85.56900865 32 80 C32.78415782 76.43084925 32.79860844 73.01849979 32.7265625 69.375 C32.72755951 68.38806152 32.72855652 67.40112305 32.72958374 66.38427734 C32.7249298 64.31013888 32.70563576 62.23598618 32.67236328 60.16210938 C32.62512095 57.00807472 32.6312655 53.85742465 32.64453125 50.703125 C32.63337638 48.67706341 32.61915576 46.65101591 32.6015625 44.625 C32.60338531 43.69349121 32.60520813 42.76198242 32.60708618 41.80224609 C32.44836709 34.38227517 30.81764466 28.04610233 25.6875 22.5 C22.444314 20.68984967 19.67923759 20.28856765 16 20 C16 19.34 16 18.68 16 18 C17.27875 17.89816406 18.5575 17.79632813 19.875 17.69140625 C25.16952818 17.09680592 29.97315502 15.65852504 35 13.9375 C36.35834961 13.47984253 36.35834961 13.47984253 37.74414062 13.01293945 C45.26127151 10.40736071 52.40924589 7.23078367 59.53125 3.69921875 C62.32994699 2.32823543 65.10259181 1.13423988 68 0 C68.00586624 1.1325975 68.01173248 2.26519501 68.01777649 3.43211365 C68.07509567 14.12808542 68.14790534 24.82385568 68.23571491 35.51962185 C68.28036079 41.01786763 68.31962973 46.5160403 68.34643555 52.0144043 C68.37252609 57.32487542 68.41296933 62.63506433 68.46318626 67.94536018 C68.47981609 69.96700583 68.49135448 71.98870024 68.49761391 74.01040459 C68.50729728 76.85155398 68.53540704 79.69198765 68.56762695 82.53295898 C68.56619186 83.36086945 68.56475677 84.18877991 68.5632782 85.04177856 C68.65376823 90.71790209 69.61464255 95.81084639 72 101 C73.90943142 103.036712 73.90943142 103.036712 76.1875 104.0625 C76.90292969 104.44535156 77.61835937 104.82820313 78.35546875 105.22265625 C78.89816406 105.47917969 79.44085937 105.73570312 80 106 C77.69919072 108.51807698 75.31544541 110.12464541 72.359375 111.8125 C71.45316406 112.33070313 70.54695312 112.84890625 69.61328125 113.3828125 C68.66839844 113.91648437 67.72351563 114.45015625 66.75 115 C65.82058594 115.53367187 64.89117188 116.06734375 63.93359375 116.6171875 C49.27107152 124.95429349 49.27107152 124.95429349 43 124 C37.7198426 121.10848524 35.95060327 116.43109147 34 111 C33.14999542 108.04788829 32.82118777 105.30075607 32.68359375 102.234375 C32.64169922 101.34492188 32.59980469 100.45546875 32.55664062 99.5390625 C32.51732422 98.61867188 32.47800781 97.69828125 32.4375 96.75 C32.37272461 95.34621094 32.37272461 95.34621094 32.30664062 93.9140625 C32.2008195 91.60951359 32.09873443 89.30486161 32 87 C31.76925781 87.49701416 31.53851562 87.99402832 31.30078125 88.50610352 C28.97575507 93.50020001 26.61253458 98.47460565 24.22265625 103.43798828 C23.10458121 105.78085559 22.01947851 108.1364259 20.9375 110.49609375 C15.7347605 121.49169527 15.7347605 121.49169527 10.9375 123.4375 C8.67578125 123.84375 8.67578125 123.84375 6 124 C4.83855469 124.0928125 3.67710937 124.185625 2.48046875 124.28125 C-7.82603603 124.69894016 -16.36417294 123.31814431 -24.4375 116.625 C-32.12162916 109.20746308 -35.06981987 101.00457881 -35.36889648 90.42382812 C-35.38317122 87.95967665 -35.383221 85.49541298 -35.37109375 83.03125 C-35.38402979 81.01990721 -35.39698881 79.00856427 -35.41126347 76.99723053 C-35.44104571 72.08723599 -35.43777574 67.17715529 -35.43579102 62.26708984 C-35.43574957 59.49687352 -35.44642028 56.72704399 -35.46754456 53.95690918 C-35.4861085 51.36363222 -35.48825607 48.77016784 -35.47129822 46.17687988 C-35.54334963 37.64581858 -36.5854214 30.24235523 -42.0625 23.4375 C-44.04181496 21.81311272 -44.04181496 21.81311272 -47 21 C-47.33 24.3 -47.66 27.6 -48 31 C-48.33 31 -48.66 31 -49 31 C-49.13513292 29.2312602 -49.23205586 27.45956945 -49.3125 25.6875 C-49.37050781 24.70136719 -49.42851562 23.71523438 -49.48828125 22.69921875 C-49 20 -49 20 -47.05859375 18.3125 C-43.04162484 16.58874323 -38.96231311 15.45824595 -34.75 14.3125 C-23.98772372 11.24533533 -13.73011095 7.10822959 -4.15234375 1.26171875 C-2 0 -2 0 0 0 Z " fill="#617BF3" transform="translate(518,245)"/>
<path d="M0 0 C1.51787109 -0.01836914 1.51787109 -0.01836914 3.06640625 -0.03710938 C17.51601419 -0.0648615 30.4369432 3.35754602 43.125 10.1875 C42.5809894 16.035614 40.88741999 21.3067489 39.10546875 26.890625 C38.00556285 30.58911337 37.24572045 34.26314053 36.6171875 38.06640625 C36.09042032 40.33652196 35.24279917 42.15051887 34.125 44.1875 C30.25424515 43.60895301 27.58662864 42.45402946 24.25 40.4375 C12.21023409 33.75591409 -0.50585178 29.73425385 -14.30078125 32.7109375 C-14.82027344 32.86820312 -15.33976563 33.02546875 -15.875 33.1875 C-15.875 34.8375 -15.875 36.4875 -15.875 38.1875 C-10.67415883 41.41036168 -5.73118831 43.35760948 0.125 45.0625 C33.56986745 55.32005025 33.56986745 55.32005025 41.2578125 69.265625 C41.54398438 69.89984375 41.83015625 70.5340625 42.125 71.1875 C42.66447266 72.35539062 42.66447266 72.35539062 43.21484375 73.546875 C46.15178296 82.06778017 44.25804216 91.05924464 40.796875 99.109375 C35.94357168 108.04489607 29.0226333 113.58677254 20.125 118.1875 C19.44566406 118.57679688 18.76632812 118.96609375 18.06640625 119.3671875 C9.73764328 123.95889988 0.664321 124.55766627 -8.6875 124.5 C-9.65236328 124.49436035 -10.61722656 124.4887207 -11.61132812 124.48291016 C-26.18813645 124.23572116 -39.50741787 119.94031268 -51.875 112.1875 C-50.75731337 106.06963634 -49.38419821 100.03119285 -47.875 94 C-47.7090332 93.33548828 -47.54306641 92.67097656 -47.37207031 91.98632812 C-46.28729436 87.69411051 -45.10995433 83.43816869 -43.875 79.1875 C-40.57359408 80.45458889 -37.48735064 81.88907859 -34.375 83.5625 C-23.58197911 89.02363931 -7.87892647 94.37393584 4.234375 90.515625 C6.02248914 89.65431525 6.02248914 89.65431525 8.125 88.1875 C8.25315365 85.8022267 8.25315365 85.8022267 7.125 83.1875 C1.80998259 79.67958851 -3.81729678 78.31544011 -9.95043945 76.75317383 C-24.67599951 72.97304922 -38.9367949 68.22409869 -47.875 55.1875 C-52.46956837 46.66029259 -53.19135401 37.69952942 -51.28515625 28.26953125 C-48.09663586 17.85173881 -40.69713928 10.51105294 -31.28125 5.3671875 C-21.02335271 0.33815344 -11.31843779 0.00715451 0 0 Z " fill="#617BF3" transform="translate(770.875,244.8125)"/>
<path d="M0 0 C0.33 8.91 0.66 17.82 1 27 C3.475 21.555 3.475 21.555 6 16 C10.30561682 9.7446699 15.35450327 2.9413839 22.8515625 0.36328125 C30.72368273 -0.96782272 38.12256614 -0.60787105 45.390625 2.734375 C47 4 47 4 47.84375 5.68359375 C48.07225641 9.07120134 47.15232058 12.08216125 46.25 15.3125 C44.16527974 23.15657834 42.51227614 31.02618034 41 39 C40.4328125 38.71253906 39.865625 38.42507813 39.28125 38.12890625 C37.0387716 37.01918663 34.78130665 35.96486926 32.5 34.9375 C31.7471875 34.59589844 30.994375 34.25429688 30.21875 33.90234375 C23.12568464 31.017664 14.55821263 30.71168163 7.375 33.3125 C3.62681629 35.97568316 1.86753282 37.43646273 1 42 C0.89836511 44.08032407 0.85164842 46.16357182 0.83886719 48.24633789 C0.82925964 49.51188004 0.8196521 50.77742218 0.80975342 52.08131409 C0.80490272 53.46175963 0.80062456 54.84220728 0.796875 56.22265625 C0.79404762 56.92237486 0.79122025 57.62209347 0.78830719 58.34301567 C0.77332933 62.05151622 0.76409314 65.75997806 0.75976562 69.46850586 C0.75430672 73.27214933 0.73032999 77.07543017 0.70179367 80.87896061 C0.68302207 83.82607499 0.67795388 86.7731049 0.67642975 89.72027397 C0.67343142 91.12070112 0.66550009 92.52112781 0.65224457 93.92149544 C0.57697656 102.49009302 1.33023604 109.85741748 4 118 C4.33 119.32 4.66 120.64 5 122 C-10.18 122 -25.36 122 -41 122 C-41 121.34 -41 120.68 -41 120 C-40.34 120 -39.68 120 -39 120 C-36.19820131 110.12227837 -35.55393061 100.70926639 -35.6015625 90.515625 C-35.59953503 88.96392684 -35.59661803 87.41222962 -35.59286499 85.86053467 C-35.5884785 82.63332913 -35.59475606 79.40637518 -35.60888672 76.17919922 C-35.62603451 72.06505603 -35.61607904 67.9514978 -35.59816933 63.83737564 C-35.58728042 60.64241194 -35.59080012 57.44758491 -35.5985527 54.25261688 C-35.60053764 52.7361214 -35.59815624 51.21961306 -35.59111404 49.70313263 C-35.37293907 35.98015038 -35.37293907 35.98015038 -41.4375 24.125 C-43.58403813 22.34494399 -45.71954603 20.60476391 -48 19 C-43.00552505 16.73453228 -38.09897201 15.11284833 -32.8125 13.6875 C-25.37582978 11.59152791 -18.79019065 8.71080519 -12 5 C-10.12941919 4.03306919 -8.2546382 3.07420388 -6.375 2.125 C-5.57835937 1.71507812 -4.78171875 1.30515625 -3.9609375 0.8828125 C-2 0 -2 0 0 0 Z " fill="#627BF3" transform="translate(228,245)"/>
<path d="M0 0 C7.30137251 5.6986322 13.61215555 12.72568863 15.5625 22 C16.3741476 35.18594711 16.23100076 48.6059991 7.24609375 59.2265625 C6.69050781 59.81179687 6.13492188 60.39703125 5.5625 61 C4.68271484 61.93972656 4.68271484 61.93972656 3.78515625 62.8984375 C-3.39500694 69.85835028 -13.18379908 73.10534131 -23.125 73.1875 C-33.13665975 73.02434703 -40.16663159 70.66680251 -48.4375 65 C-49.345 64.401875 -50.2525 63.80375 -51.1875 63.1875 C-57.8655175 56.69498299 -62.38845629 48.33121216 -62.87109375 38.9765625 C-62.89452008 37.19286169 -62.89523328 35.40873989 -62.875 33.625 C-62.86742676 32.69397461 -62.85985352 31.76294922 -62.85205078 30.80371094 C-62.69211848 24.1565975 -61.95038388 18.76025679 -58.4375 13 C-58.00179687 12.21625 -57.56609375 11.4325 -57.1171875 10.625 C-53.76848752 5.06213227 -49.8589408 1.50134718 -44.4375 -2 C-43.591875 -2.5775 -42.74625 -3.155 -41.875 -3.75 C-27.91019431 -10.91143882 -12.81254109 -7.45456936 0 0 Z " fill="#E364A3" transform="translate(594.4375,51)"/>
<path d="M0 0 C0.00586624 1.31829803 0.01173248 2.63659607 0.01777649 3.99484253 C0.07508412 16.44170546 0.14788796 28.88839503 0.23571491 41.3350811 C0.28036952 47.73346564 0.31963668 54.13178722 0.34643555 60.53027344 C0.37251717 66.70956447 0.41295448 72.8886126 0.46318626 79.06775284 C0.47982204 81.4207163 0.49135673 83.77372174 0.49761391 86.12673569 C0.50729058 89.43224065 0.53539345 92.73712877 0.56762695 96.04248047 C0.56619186 97.00705673 0.56475677 97.971633 0.5632782 98.96543884 C0.64160859 104.6759132 1.49117245 109.49982418 3.35895061 114.90475655 C4 117 4 117 4 120 C4.66 120 5.32 120 6 120 C6 120.66 6 121.32 6 122 C-9.18 122 -24.36 122 -40 122 C-38.66666667 118 -37.33333333 114 -36 110 C-35.89484537 107.67680708 -35.85129406 105.35068479 -35.83886719 103.02514648 C-35.83141983 101.96593742 -35.83141983 101.96593742 -35.82382202 100.8853302 C-35.80921035 98.54724144 -35.80239761 96.20922069 -35.796875 93.87109375 C-35.79111967 92.24023945 -35.78536198 90.60938516 -35.77960205 88.97853088 C-35.76909278 85.55461309 -35.76325064 82.13071876 -35.75976562 78.70678711 C-35.75430221 74.34141453 -35.73032038 69.97635722 -35.70179367 65.61108303 C-35.68306532 62.23852164 -35.67795615 58.86603435 -35.67642975 55.49342537 C-35.67342211 53.88563387 -35.6654582 52.27784308 -35.65224457 50.67010307 C-35.11713037 36.76921696 -35.11713037 36.76921696 -40.31048584 24.33201599 C-43.56667982 21.30886568 -46.63713916 20.31163292 -51 20 C-51 19.34 -51 18.68 -51 18 C-49.99582031 17.84144531 -48.99164063 17.68289063 -47.95703125 17.51953125 C-38.80344612 15.99037056 -30.55681186 13.70525006 -22 10 C-21.20207031 9.67 -20.40414063 9.34 -19.58203125 9 C-14.27938095 6.74754677 -9.291989 4.01682638 -4.28515625 1.171875 C-2 0 -2 0 0 0 Z " fill="#627CF3" transform="translate(328,245)"/>
<path d="M0 0 C2.21923828 0.00170898 2.21923828 0.00170898 5.96923828 0.37670898 C13.6690298 58.23396595 13.6690298 58.23396595 12.96923828 76.37670898 C8.43941609 77.10216601 4.11783286 77.49073814 -0.46826172 77.43920898 C-1.51884766 77.43018555 -2.56943359 77.42116211 -3.65185547 77.41186523 C-4.82941406 77.39446289 -4.82941406 77.39446289 -6.03076172 77.37670898 C-7.93934938 66.61818211 -9.56208834 56.33778039 -9.03076172 45.37670898 C-12.8780159 49.05759541 -16.14461897 52.93856817 -19.34326172 57.18920898 C-19.79765625 57.78668945 -20.25205078 58.38416992 -20.72021484 58.99975586 C-21.82710088 60.45618486 -22.92941436 61.91608715 -24.03076172 63.37670898 C-27.79001636 62.79836212 -29.65885599 61.19048767 -32.40576172 58.62670898 C-35.86437209 55.42474461 -39.39462887 52.37363692 -43.03076172 49.37670898 C-42.97017578 50.12766846 -42.90958984 50.87862793 -42.84716797 51.65234375 C-42.5721713 55.08107624 -42.30143018 58.51013221 -42.03076172 61.93920898 C-41.93537109 63.12063477 -41.83998047 64.30206055 -41.74169922 65.51928711 C-41.29974267 71.15423314 -40.89794912 76.7238729 -41.03076172 82.37670898 C-47.72689368 83.17454598 -54.28842753 83.50581751 -61.03076172 83.37670898 C-61.84037847 79.02335989 -62.20905838 74.79785062 -62.40576172 70.37670898 C-62.75214207 63.8163114 -63.52427063 57.37614855 -64.46826172 50.87670898 C-65.6369225 42.76684647 -66.53966143 34.66755343 -67.21826172 26.50170898 C-67.34382446 25.01380859 -67.34382446 25.01380859 -67.47192383 23.49584961 C-67.8993595 18.10344259 -68.11387781 12.78564847 -68.03076172 7.37670898 C-64.99560547 6.47045898 -64.99560547 6.47045898 -61.03076172 6.37670898 C-58.13541372 8.12047214 -55.92962395 10.45398199 -53.59326172 12.87670898 C-52.26706111 14.1833305 -50.94024523 15.48932785 -49.61279297 16.79467773 C-48.98840332 17.42164551 -48.36401367 18.04861328 -47.72070312 18.69458008 C-41.29419332 25.0913805 -34.06481262 30.67447287 -27.03076172 36.37670898 C-26.79486328 35.67674805 -26.55896484 34.97678711 -26.31591797 34.25561523 C-24.80743675 30.87643391 -22.76175211 28.18128941 -20.46826172 25.31420898 C-19.56789352 24.16626425 -18.66816847 23.01781482 -17.76904297 21.86889648 C-17.31352051 21.28978516 -16.85799805 20.71067383 -16.38867188 20.11401367 C-14.27786768 17.41345944 -12.21563186 14.67887043 -10.15576172 11.93920898 C-9.45708984 11.01237305 -8.75841797 10.08553711 -8.03857422 9.13061523 C-5.92357463 6.37040102 -5.92357463 6.37040102 -4.27294922 3.02905273 C-2.03076172 0.37670898 -2.03076172 0.37670898 0 0 Z " fill="#E364A2" transform="translate(364.03076171875,33.623291015625)"/>
<path d="M0 0 C1.36928373 5.32796818 2.57687329 10.6506292 3.62109375 16.05078125 C3.91981416 17.56968265 4.21864578 19.08856217 4.51757812 20.60742188 C4.97754499 22.95665189 5.43625886 25.30611194 5.89282227 27.65600586 C7.4679765 35.74745851 9.08620207 43.75433604 11.35473633 51.6862793 C12.28343629 55.01631695 12.96236224 58.35671215 13.625 61.75 C13.86476563 62.96171875 14.10453125 64.1734375 14.3515625 65.421875 C14.98900577 68.93933307 15.51866516 72.45810209 16 76 C13.60530271 76.50604924 11.20948283 77.00499517 8.8125 77.5 C8.13896484 77.64308594 7.46542969 77.78617187 6.77148438 77.93359375 C3.12490207 78.68069842 -0.27648957 79.17352282 -4 79 C-6.44278534 71.64792761 -8.42071072 64.47879943 -9.5625 56.8125 C-10.18279721 52.82487506 -11.08324097 48.92896728 -12 45 C-15.64609991 48.28896484 -18.05799222 52.07884331 -20.5625 56.25 C-24.16269514 62.13029609 -27.89132181 67.89090357 -31.8125 73.5625 C-32.25601807 74.20413086 -32.69953613 74.84576172 -33.15649414 75.50683594 C-34.01028398 76.73583171 -34.8687086 77.9616232 -35.73217773 79.18383789 C-36.60770543 80.43803595 -37.46287604 81.70660472 -38.30102539 82.98608398 C-41.58845388 87.89880014 -41.58845388 87.89880014 -45.8125 88.9375 C-46.864375 88.958125 -47.91625 88.97875 -49 89 C-50.92979252 83.30642773 -52.31877787 77.62367358 -53.38671875 71.70703125 C-54.84661656 63.74141747 -56.42211776 55.80325004 -58.05224609 47.87084961 C-58.50322588 45.67176986 -58.94889671 43.47165273 -59.39453125 41.27148438 C-60.84459356 34.17550034 -62.38620092 27.15480521 -64.46679688 20.21020508 C-65 18 -65 18 -65 14 C-62.23010036 13.32923511 -59.45920258 12.66323683 -56.6875 12 C-55.90181641 11.80921875 -55.11613281 11.6184375 -54.30664062 11.421875 C-53.54931641 11.24140625 -52.79199219 11.0609375 -52.01171875 10.875 C-51.31522217 10.70742188 -50.61872559 10.53984375 -49.90112305 10.3671875 C-48 10 -48 10 -45 10 C-43.19639716 14.05033223 -42.27181965 18.09555472 -41.5 22.4375 C-41.30990356 23.47680664 -41.30990356 23.47680664 -41.1159668 24.53710938 C-39.89554294 31.33252834 -38.90895748 38.15608487 -38 45 C-34.59630365 41.87227903 -32.17105881 38.40020867 -29.75 34.5 C-28.95258138 33.23910335 -28.15439101 31.97869446 -27.35546875 30.71875 C-26.9589209 30.09097656 -26.56237305 29.46320313 -26.15380859 28.81640625 C-23.19064307 24.15158367 -20.10887951 19.56850131 -17 15 C-16.58540527 14.38463379 -16.17081055 13.76926758 -15.74365234 13.13525391 C-14.42464745 11.18565294 -13.08946932 9.24808372 -11.75 7.3125 C-11.33758057 6.69955078 -10.92516113 6.08660156 -10.50024414 5.45507812 C-7.53718676 1.22780698 -7.53718676 1.22780698 -4.890625 0.10546875 C-3.2625689 0.01464744 -1.63058737 0 0 0 Z " fill="#E365A3" transform="translate(271,45)"/>
<path d="M0 0 C7.21068438 0.91720589 13.96304915 2.81617667 20.9375 4.8125 C22.17435547 5.15603516 23.41121094 5.49957031 24.68554688 5.85351562 C41.91274629 10.7611037 41.91274629 10.7611037 48 18 C48.69996094 18.77730469 48.69996094 18.77730469 49.4140625 19.5703125 C54.85323242 26.58957647 53.61075615 35.07096722 52.74609375 43.46484375 C51.28105223 51.25269603 45.33685862 57.65117546 39 62 C26.7533209 67.85197768 16.06933388 64.1928207 4 60 C3.83564453 60.92619141 3.83564453 60.92619141 3.66796875 61.87109375 C2.5622734 67.77712501 1.04638565 73.35197559 -1 79 C-7.45177947 77.64720753 -13.70638982 75.95479367 -20 74 C-18.77003541 67.36169287 -17.22289336 60.91072846 -15.3125 54.4375 C-14.7779665 52.59655128 -14.24414346 50.75539616 -13.7109375 48.9140625 C-13.43217773 47.9540332 -13.15341797 46.99400391 -12.86621094 46.00488281 C-11.36071007 40.7823054 -9.89961703 35.54735835 -8.4375 30.3125 C-8.14520508 29.26707031 -7.85291016 28.22164062 -7.55175781 27.14453125 C-5.02437707 18.09916861 -2.50829609 9.05067205 0 0 Z " fill="#E365A3" transform="translate(635,58)"/>
<path d="M0 0 C5.27854813 14.09682854 9.85615854 28.43449988 14.37841797 42.78808594 C15.79883292 47.28302986 17.24706735 51.76379119 18.77734375 56.22265625 C19.05707031 57.04056641 19.33679688 57.85847656 19.625 58.70117188 C20.15088461 60.22952402 20.68303538 61.75574044 21.22265625 63.27929688 C22.48963054 66.9653567 23.31240041 70.0911851 23 74 C22.15695313 74.20496094 21.31390625 74.40992188 20.4453125 74.62109375 C19.34960938 74.89050781 18.25390625 75.15992188 17.125 75.4375 C16.03445312 75.70433594 14.94390625 75.97117187 13.8203125 76.24609375 C11.07515279 76.8786478 11.07515279 76.8786478 9 78 C7.00039988 78.039992 4.99952758 78.04346799 3 78 C0.33333333 68.66666667 -2.33333333 59.33333333 -5 50 C-5.55985596 50.18175781 -6.11971191 50.36351562 -6.6965332 50.55078125 C-9.23375418 51.37170103 -11.77307728 52.18591791 -14.3125 53 C-15.19357422 53.28617188 -16.07464844 53.57234375 -16.98242188 53.8671875 C-17.82998047 54.13789062 -18.67753906 54.40859375 -19.55078125 54.6875 C-20.33106689 54.93886719 -21.11135254 55.19023438 -21.9152832 55.44921875 C-24 56 -24 56 -27 56 C-26.2353878 58.85596255 -25.46353159 61.70963888 -24.6875 64.5625 C-24.36749023 65.76229492 -24.36749023 65.76229492 -24.04101562 66.98632812 C-23.01360584 70.74327434 -21.92698379 74.3431545 -20.34375 77.90625 C-19.02943738 80.93222557 -18.70497753 82.75475288 -19 86 C-20.28468039 86.6392371 -21.57838107 87.26033982 -22.875 87.875 C-23.59429687 88.22304687 -24.31359375 88.57109375 -25.0546875 88.9296875 C-29.26957018 90.46135574 -33.59504674 91.20387247 -38 92 C-38.21503174 91.28908203 -38.43006348 90.57816406 -38.65161133 89.84570312 C-43.53444494 73.76348653 -48.67145866 57.80913673 -54.28051758 41.96484375 C-56.94415925 34.3928155 -59.22439761 26.8317724 -61 19 C-58.79567015 18.15450362 -56.58751467 17.32357186 -54.375 16.5 C-53.14523438 16.0359375 -51.91546875 15.571875 -50.6484375 15.09375 C-47.18957134 14.05683081 -44.57814964 13.77980618 -41 14 C-39.82627027 17.60190542 -38.66223744 21.20687151 -37.5 24.8125 C-37.16613281 25.83666016 -36.83226562 26.86082031 -36.48828125 27.91601562 C-36.17246094 28.89892578 -35.85664063 29.88183594 -35.53125 30.89453125 C-35.09135742 32.25348511 -35.09135742 32.25348511 -34.64257812 33.63989258 C-34 36 -34 36 -34 39 C-32.38931641 38.47599609 -32.38931641 38.47599609 -30.74609375 37.94140625 C-29.30998974 37.48147751 -27.87378648 37.02185858 -26.4375 36.5625 C-25.73302734 36.33240234 -25.02855469 36.10230469 -24.30273438 35.86523438 C-19.86281638 34.45346322 -15.63028129 33.52934885 -11 33 C-11.37137085 31.88757935 -11.37137085 31.88757935 -11.75024414 30.75268555 C-12.86357485 27.40061198 -13.96317857 24.04419265 -15.0625 20.6875 C-15.45244141 19.52025391 -15.84238281 18.35300781 -16.24414062 17.15039062 C-16.60830078 16.03212891 -16.97246094 14.91386719 -17.34765625 13.76171875 C-17.68804932 12.73006592 -18.02844238 11.69841309 -18.37915039 10.63549805 C-19 8 -19 8 -18 5 C-15.52665762 3.95222369 -13.17972108 3.09838539 -10.625 2.3125 C-9.93921875 2.08755859 -9.2534375 1.86261719 -8.546875 1.63085938 C-5.59234644 0.68529527 -3.1196449 0 0 0 Z " fill="#E365A2" transform="translate(182,66)"/>
<path d="M0 0 C6.4188547 1.73624758 12.13784836 3.85180745 18 7 C17.27464269 12.586085 15.3503276 17.0924717 13.05859375 22.1953125 C11.76458546 25.12408246 11.76458546 25.12408246 12 29 C13.2684375 29.43699219 13.2684375 29.43699219 14.5625 29.8828125 C25.46015406 33.8208284 35.00298214 39.00596428 40.375 49.75 C42.2494405 59.49709062 41.01986879 67.55564784 35.75 76.00390625 C31.8741505 81.10196966 27.04912048 84.04115289 21 86 C10.46289643 87.32285785 2.15616646 84.81991581 -7.4375 80.6875 C-8.65115234 80.18798828 -9.86480469 79.68847656 -11.11523438 79.17382812 C-14.42147125 77.80753976 -17.71304616 76.41192916 -21 75 C-21.79293457 74.66178223 -22.58586914 74.32356445 -23.40283203 73.97509766 C-24.93664661 73.32005909 -26.46865863 72.66079974 -28 72 C-27.43925867 67.55365112 -26.2955825 64.13280453 -24.3125 60.125 C-22.02836574 55.35741846 -20.02216617 50.56716617 -18.21484375 45.59765625 C-15.07290475 37.09410336 -11.6848815 28.7011216 -8.25 20.3125 C-7.66775811 18.88615367 -7.0857263 17.45972158 -6.50390625 16.03320312 C-5.44564225 13.43866945 -4.3859659 10.84473241 -3.32519531 8.2512207 C-2.20584748 5.50502411 -1.0972221 2.75509477 0 0 Z " fill="#E365A3" transform="translate(714,80)"/>
<path d="M0 0 C3.3 0 6.6 0 10 0 C16.3128793 13.12189274 22.38284422 26.34971563 28.38525391 39.61572266 C29.02766359 41.03548434 29.67007891 42.45524347 30.3125 43.875 C30.62641693 44.56894867 30.94033386 45.26289734 31.26376343 45.97787476 C33.21595395 50.28749472 35.19229886 54.5850637 37.1875 58.875 C37.65744385 59.89037842 38.1273877 60.90575684 38.61157227 61.9519043 C39.47057895 63.80515073 40.33529799 65.65576441 41.20678711 67.50317383 C41.5806958 68.31294678 41.95460449 69.12271973 42.33984375 69.95703125 C42.66331787 70.64772705 42.98679199 71.33842285 43.32006836 72.05004883 C44 74 44 74 44 78 C40.89614789 78.11613204 37.79285338 78.18722029 34.6875 78.25 C33.80642578 78.28351563 32.92535156 78.31703125 32.01757812 78.3515625 C25.56007751 78.44977544 25.56007751 78.44977544 22.95703125 76.359375 C22 74 22 74 21 68 C5.655 68.495 5.655 68.495 -10 69 C-11.32 71.97 -12.64 74.94 -14 78 C-20.6 78 -27.2 78 -34 78 C-32.87508009 71.25048056 -32.87508009 71.25048056 -31.34521484 67.99267578 C-31.00751068 67.26396271 -30.66980652 66.53524963 -30.3218689 65.78445435 C-29.77195786 64.62657913 -29.77195786 64.62657913 -29.2109375 63.4453125 C-28.82942535 62.62610321 -28.44791321 61.80689392 -28.05484009 60.96286011 C-26.83510772 58.34695765 -25.60553312 55.73583666 -24.375 53.125 C-22.77567113 49.71232486 -21.18035671 46.29778377 -19.5859375 42.8828125 C-18.99931839 41.62886185 -18.99931839 41.62886185 -18.40084839 40.34957886 C-15.31847789 33.73980092 -12.37401503 27.07665161 -9.47412109 20.38525391 C-7.75316312 16.43315002 -5.96076436 12.5249418 -4.125 8.625 C-3.83109375 7.99851562 -3.5371875 7.37203125 -3.234375 6.7265625 C-2.17606311 4.47400876 -1.11305339 2.22610678 0 0 Z " fill="#E366A3" transform="translate(419,32)"/>
<path d="M0 0 C2.54168158 1.92659464 4.87026552 3.99174412 7.203125 6.16796875 C10.39796218 9.1258771 13.59526525 12.07166221 16.890625 14.91796875 C20.3000108 17.87930385 23.6310681 20.92199361 26.953125 23.98046875 C30.90904146 27.62212156 34.89874051 31.21546311 38.9609375 34.73828125 C42.17016682 37.54478375 45.32408137 40.41248791 48.48828125 43.26953125 C51.38593187 45.86869171 54.31676031 48.42732683 57.26171875 50.97265625 C58.8873784 52.42185861 60.42988361 53.92461975 61.953125 55.48046875 C60.953125 58.48046875 60.953125 58.48046875 57.75 60.15625 C56.40595912 60.71382735 55.05669264 61.25893406 53.703125 61.79296875 C53.03410156 62.08236328 52.36507812 62.37175781 51.67578125 62.66992188 C48.45641598 63.96336038 46.46343633 64.60839046 43.0546875 63.75390625 C40.953125 62.48046875 40.953125 62.48046875 39.578125 60.79296875 C37.91712961 59.15486711 37.91712961 59.15486711 34.99609375 59.61328125 C29.85150258 60.46253657 25.31445448 62.82332464 20.640625 65.04296875 C18.85435889 65.88079748 17.06666633 66.71559389 15.27734375 67.546875 C14.49447998 67.91756104 13.71161621 68.28824707 12.9050293 68.67016602 C10.953125 69.48046875 10.953125 69.48046875 8.953125 69.48046875 C8.953125 73.44046875 8.953125 77.40046875 8.953125 81.48046875 C6.25130208 82.45703125 3.54947917 83.43359375 0.84765625 84.41015625 C-1.02513428 85.10265909 -2.88392463 85.83484012 -4.72265625 86.61328125 C-7.046875 87.48046875 -7.046875 87.48046875 -10.046875 87.48046875 C-10.1826551 71.05525489 -10.00203145 54.65052889 -9.609375 38.23046875 C-9.58972687 37.36777374 -9.57007874 36.50507874 -9.54983521 35.61624146 C-9.43577431 30.68312262 -9.29083531 25.7523754 -9.11602783 20.82104492 C-9.04681833 18.47855052 -9.02089009 16.13828693 -8.99951172 13.79492188 C-8.96309602 12.34111575 -8.92555596 10.88733721 -8.88671875 9.43359375 C-8.85952759 7.52562012 -8.85952759 7.52562012 -8.83178711 5.57910156 C-8.046875 2.48046875 -8.046875 2.48046875 -5.12231445 0.51342773 C-2.046875 -0.51953125 -2.046875 -0.51953125 0 0 Z " fill="#E365A2" transform="translate(75.046875,103.51953125)"/>
<path d="M0 0 C1.65 0 3.3 0 5 0 C5 158.07 5 316.14 5 479 C3.35 479 1.7 479 0 479 C0 320.93 0 162.86 0 0 Z " fill="#222222" transform="translate(0,0)"/>
<path d="M0 0 C3.95807715 -0.11761144 7.91569621 -0.18771882 11.875 -0.25 C13.53789062 -0.30027344 13.53789062 -0.30027344 15.234375 -0.3515625 C24.91918036 -0.46550139 33.43126389 1.66338372 41 8 C47.13120092 15.80489922 49.03116307 24.2039508 48 34 C46.05732384 42.74204272 42.71992941 50.51624258 35.375 55.9375 C28.98868736 58.7945346 21.45404091 59.11163247 14.68359375 57.421875 C7.76942642 54.44512977 2.94581748 47.77558455 0 41 C-0.24050903 38.96246338 -0.24050903 38.96246338 -0.22705078 36.78222656 C-0.22689972 35.96167786 -0.22674866 35.14112915 -0.22659302 34.29571533 C-0.21627045 33.41953552 -0.20594788 32.54335571 -0.1953125 31.640625 C-0.1924826 30.73624695 -0.18965271 29.8318689 -0.18673706 28.90008545 C-0.17555782 26.01658805 -0.15045733 23.13340325 -0.125 20.25 C-0.11496728 18.29297324 -0.10584194 16.33594161 -0.09765625 14.37890625 C-0.07562585 9.58581738 -0.04111144 4.79296166 0 0 Z " fill="#F5E6D2" transform="translate(385,234)"/>
<path d="M0 0 C10.42337021 -0.16209433 20.63622607 0.36585716 31.0168457 1.22680664 C33.5895163 1.43973603 36.16280851 1.64331883 38.73632812 1.84570312 C40.38806436 1.97862695 42.03975881 2.11207116 43.69140625 2.24609375 C44.83362389 2.33678383 44.83362389 2.33678383 45.99891663 2.42930603 C49.72782268 2.74205434 53.35001447 3.16544766 57 4 C57.02709444 6.08326131 57.04643873 8.16662441 57.0625 10.25 C57.07410156 11.41015625 57.08570313 12.5703125 57.09765625 13.765625 C57.01782092 16.40977128 56.78643778 18.49826091 56 21 C49.56744599 21.12086218 43.38226945 20.82351864 37 20 C37.02320313 20.73943848 37.04640625 21.47887695 37.0703125 22.24072266 C37.26575257 34.02820173 36.10311848 45.65158985 35 57.375 C34.80671214 59.47911351 34.61399944 61.58327994 34.421875 63.6875 C33.95454026 68.79230049 33.47944595 73.89632336 33 79 C26.56252349 79.05637294 20.38798164 78.8242557 14 78 C13.75898133 66.04279618 14.3023582 54.47078848 15.70898438 42.60058594 C16.25974847 37.67882492 16.68622922 32.74528691 17.125 27.8125 C17.21249512 26.83692139 17.29999023 25.86134277 17.39013672 24.85620117 C17.59465476 22.57090748 17.79798339 20.28551594 18 18 C17.29875 18.01160156 16.5975 18.02320312 15.875 18.03515625 C14.92625 18.04417969 13.9775 18.05320312 13 18.0625 C12.071875 18.07410156 11.14375 18.08570312 10.1875 18.09765625 C6.44218433 17.98291006 2.71813765 17.46476721 -1 17 C-0.67 11.39 -0.34 5.78 0 0 Z " fill="#E365A2" transform="translate(469,34)"/>
<path d="M0 0 C0 16.5 0 33 0 50 C-15.18 50 -30.36 50 -46 50 C-42.55724799 32.78623995 -38.24885007 17.88877015 -24.2578125 6.50390625 C-16.0034298 1.00574477 -10.0856054 0 0 0 Z " fill="#F3E0CD" transform="translate(137,235)"/>
<path d="M0 0 C3.05381838 -0.07276816 6.1058883 -0.12596507 9.16015625 -0.16796875 C10.02080688 -0.19048706 10.88145752 -0.21300537 11.76818848 -0.23620605 C17.73659534 -0.29776554 21.71664558 0.38689636 26.41015625 4.35546875 C28.48730115 6.50406336 30.36574042 8.4857545 32 11 C32.51820313 11.77859375 33.03640625 12.5571875 33.5703125 13.359375 C35.70235876 18.78852011 35.51302114 23.96861187 35.5 29.75 C35.52835938 30.87921875 35.55671875 32.0084375 35.5859375 33.171875 C35.60368816 40.84015991 34.35031551 46.60089756 30 53 C26.60938823 56.23649306 24.07718321 57.23014438 19.5 57.4375 C12.40222116 57.05768575 8.35320358 53.68667117 3.515625 48.81640625 C0.78125263 45.53938781 -0.25212504 42.86125762 -0.22705078 38.59863281 C-0.22689972 37.7380426 -0.22674866 36.87745239 -0.22659302 35.99078369 C-0.21627045 35.07085632 -0.20594788 34.15092896 -0.1953125 33.203125 C-0.1924826 32.25435486 -0.18965271 31.30558472 -0.18673706 30.32806396 C-0.17555448 27.30191361 -0.1504533 24.2760607 -0.125 21.25 C-0.11496772 19.19661886 -0.1058423 17.14323308 -0.09765625 15.08984375 C-0.07562141 10.05978146 -0.04110462 5.02994114 0 0 Z " fill="#F5E8D4" transform="translate(640,280)"/>
<path d="M0 0 C5.58877126 3.30929313 10.48420122 8.04443932 12.5625 14.3125 C13.54277218 21.41947333 13.5237463 27.70979662 9.1171875 33.59765625 C4.09536376 39.13680355 -0.3324196 42.89217152 -8.046875 43.52734375 C-15.16116288 43.76769131 -19.48194789 42.83553229 -25 38.125 C-30.8747136 31.34648431 -33.32135336 26.76050791 -32.9140625 17.5 C-31.87582341 10.55571233 -28.79039396 6.08768292 -23.3125 1.8125 C-16.63267603 -2.86597593 -7.42948856 -3.51624649 0 0 Z " fill="#627CF2" transform="translate(321.4375,192.6875)"/>
<path d="M0 0 C4.23962678 0.50151683 7.87982155 1.11906509 11.75 2.9375 C12.48734375 3.27652344 13.2246875 3.61554688 13.984375 3.96484375 C16 5 16 5 19 7 C16.89268082 13.67062863 14.38296966 20.10991644 11.6875 26.5625 C8.94223517 33.18925037 6.27138966 39.82412441 3.8125 46.5625 C1.63781682 52.50827981 -0.89344904 58.21976114 -3.609375 63.9375 C-5.69221437 68.52442715 -7.37638147 73.23420208 -9 78 C-13.40703887 77.40534708 -17.2014807 76.31445998 -21.3125 74.625 C-22.36050781 74.20476562 -23.40851562 73.78453125 -24.48828125 73.3515625 C-27 72 -27 72 -28 69 C-27.01451931 66.165514 -25.95254078 63.47211419 -24.765625 60.72265625 C-24.41618332 59.89156342 -24.06674164 59.06047058 -23.70671082 58.20419312 C-22.95388768 56.41605273 -22.19682675 54.62969183 -21.43600464 52.84494019 C-19.45558614 48.19875599 -17.504916 43.54009724 -15.55078125 38.8828125 C-15.1608046 37.95570969 -14.77082794 37.02860687 -14.36903381 36.07341003 C-10.94077247 27.90648751 -7.65316497 19.69012551 -4.4375 11.4375 C-3.75059082 9.67515015 -3.75059082 9.67515015 -3.04980469 7.87719727 C-2.02980266 5.25275854 -1.01274145 2.62724712 0 0 Z " fill="#E366A3" transform="translate(784,109)"/>
<path d="M0 0 C4.31229899 2.85938595 7.41621652 5.31993359 8.75 10.4375 C9.76223752 19.07129063 8.61734252 25.76479368 4.0625 33.1875 C-0.16960889 37.30522757 -4.33746922 39.19463895 -10.1875 39.9375 C-15.68769836 39.60185797 -21.04001277 37.74722537 -24.89453125 33.71875 C-29.86771871 26.95406849 -29.93278812 20.56364028 -29.25 12.4375 C-27.59439577 6.48678538 -24.27877565 2.85706744 -19.25 -0.5625 C-12.26023728 -3.75347863 -6.61701134 -3.64908714 0 0 Z " fill="#FAEBD8" transform="translate(581.25,65.5625)"/>
<path d="M0 0 C4.16553578 0.54890681 8.2034514 1.17361289 12.25 2.3125 C13.08015625 2.53550781 13.9103125 2.75851563 14.765625 2.98828125 C17.51364996 4.23257926 18.51774927 5.38841539 20 8 C20.94453438 12.68012532 20.40526189 16.23139986 18.1875 20.4375 C16 23 16 23 13 25 C7.25285348 25.13602714 1.50159674 23.50043547 -4 22 C-4.2248832 16.5957757 -3.4886411 12.18724757 -2 7.0625 C-1.80921875 6.37865234 -1.6184375 5.69480469 -1.421875 4.99023438 C-0.95595063 3.32455474 -0.47911589 1.66193325 0 0 Z " fill="#FAE8D8" transform="translate(649,80)"/>
<path d="M0 0 C6.44222794 0.50859694 13.39988116 3.39988116 18 8 C18.43785986 13.34189034 18.43642632 16.63838197 15 21 C11.72046214 22.63976893 8.542275 22.53275816 5 22 C1.20520825 20.57383648 -2.39732731 18.85431683 -6 17 C-5.49487476 10.77012202 -2.67395877 5.54525767 0 0 Z " fill="#FAE9D9" transform="translate(717,126)"/>
<path d="M0 0 C0.01030746 1.02872726 0.02061493 2.05745453 0.03123474 3.11735535 C0.12900589 12.8137953 0.23174351 22.51017162 0.33933926 32.20650768 C0.39449525 37.19144195 0.44790349 42.17638216 0.49731445 47.16137695 C0.54506609 51.97247157 0.59741269 56.78349629 0.65294075 61.59450722 C0.67331541 63.42968314 0.69203645 65.26487819 0.70907402 67.10008812 C0.73322645 69.67120649 0.76326593 72.24219391 0.79467773 74.81323242 C0.8004332 75.57136734 0.80618866 76.32950226 0.81211853 77.11061096 C0.86412312 80.857349 1.10701172 84.35535366 2 88 C0 87 0 87 -1.11080933 83.92893982 C-2.12939986 80.00738535 -2.26880009 76.17129655 -2.22705078 72.13696289 C-2.22734283 71.38491577 -2.22763489 70.63286865 -2.22793579 69.85803223 C-2.22655318 67.39611888 -2.21104295 64.93451609 -2.1953125 62.47265625 C-2.19157856 60.75630356 -2.18873339 59.03994873 -2.18673706 57.32359314 C-2.17913059 52.82402579 -2.15950798 48.32458922 -2.1373291 43.82507324 C-2.1168061 39.22649911 -2.10772158 34.62790368 -2.09765625 30.02929688 C-2.07625909 21.01947405 -2.04215948 12.00974793 -2 3 C-2.79664063 3.45052734 -2.79664063 3.45052734 -3.609375 3.91015625 C-4.31578125 4.29042969 -5.0221875 4.67070312 -5.75 5.0625 C-6.79414063 5.63677734 -6.79414063 5.63677734 -7.859375 6.22265625 C-10.36140628 7.1312406 -11.5332355 6.88336837 -14 6 C-12.04414675 4.99515796 -10.08523763 3.99626195 -8.125 3 C-6.48917969 2.1646875 -6.48917969 2.1646875 -4.8203125 1.3125 C-2 0 -2 0 0 0 Z " fill="#7D8DE1" transform="translate(518,245)"/>
<path d="M0 0 C0.66 0 1.32 0 2 0 C3.1734316 2.60130627 4.33892508 5.20568508 5.5 7.8125 C5.83386719 8.55048828 6.16773438 9.28847656 6.51171875 10.04882812 C6.82753906 10.76103516 7.14335937 11.47324219 7.46875 12.20703125 C7.76201172 12.8616333 8.05527344 13.51623535 8.35742188 14.19067383 C9 16 9 16 9 19 C3.72 19 -1.56 19 -7 19 C-6.10656817 14.53284086 -4.76463639 10.80385599 -2.9375 6.6875 C-2.65583984 6.04232422 -2.37417969 5.39714844 -2.08398438 4.73242188 C-1.3937257 3.15301642 -0.69746802 1.57623507 0 0 Z " fill="#F9E3D7" transform="translate(423,64)"/>
<path d="M0 0 C9.10714286 6.83035714 9.10714286 6.83035714 12 9.75 C12.5775 10.32234375 13.155 10.8946875 13.75 11.484375 C15 13 15 13 15 15 C12.87717331 16.00460531 10.75166979 17.00355602 8.625 18 C7.44164063 18.556875 6.25828125 19.11375 5.0390625 19.6875 C2 21 2 21 0 21 C0 14.07 0 7.14 0 0 Z " fill="#F8DFD2" transform="translate(83,134)"/>
<path d="M0 0 C2 1 2 1 2.8515625 3.28515625 C3.10679687 4.20167969 3.36203125 5.11820312 3.625 6.0625 C3.88539063 6.98160156 4.14578125 7.90070313 4.4140625 8.84765625 C4.60742188 9.55792969 4.80078125 10.26820313 5 11 C4.34 11 3.68 11 3 11 C3 33.44 3 55.88 3 79 C-0.08101631 75.91898369 0.03335285 72.92487833 -0.12025452 68.66532898 C-0.11803391 67.39735977 -0.11581329 66.12939056 -0.11352539 64.82299805 C-0.11367142 64.12001083 -0.11381744 63.41702362 -0.1139679 62.69273376 C-0.11327441 60.38236341 -0.10550857 58.07207492 -0.09765625 55.76171875 C-0.09579006 54.15460759 -0.09436711 52.54749585 -0.09336853 50.94038391 C-0.08955915 46.72031063 -0.07974239 42.50027203 -0.06866455 38.2802124 C-0.05841643 33.97001616 -0.05386363 29.6598143 -0.04882812 25.34960938 C-0.03811867 16.89972371 -0.02106127 8.44986617 0 0 Z " fill="#C9C8DE" transform="translate(640,330)"/>
<path d="M0 0 C2.65665417 2.51211764 3.86823764 4.63039601 5.1875 8.0625 C5.53167969 8.94035156 5.87585938 9.81820313 6.23046875 10.72265625 C7 13 7 13 7 15 C6.34 15 5.68 15 5 15 C4.67 13.68 4.34 12.36 4 11 C2.67789941 13.64420117 2.83877878 15.68199615 2.79467773 18.64306641 C2.77473251 19.82413971 2.75478729 21.00521301 2.73423767 22.22207642 C2.71752518 23.50230682 2.70081268 24.78253723 2.68359375 26.1015625 C2.66281265 27.40829926 2.64203156 28.71503601 2.62062073 30.06137085 C2.56540706 33.536689 2.51599475 37.01206653 2.46777344 40.48748779 C2.41755323 44.033379 2.36186988 47.5791839 2.30664062 51.125 C2.19906772 58.0832585 2.09762083 65.04159496 2 72 C0 70 0 70 -0.24050903 67.10202026 C-0.23606781 65.86291901 -0.23162659 64.62381775 -0.22705078 63.34716797 C-0.22734283 62.66412598 -0.22763489 61.98108398 -0.22793579 61.27734375 C-0.22654039 59.01549659 -0.21096967 56.75397724 -0.1953125 54.4921875 C-0.19158311 52.92563049 -0.18873579 51.35907116 -0.18673706 49.79251099 C-0.17909476 45.66605203 -0.15944124 41.53973349 -0.1373291 37.41333008 C-0.11688346 33.20395813 -0.1077381 28.99456352 -0.09765625 24.78515625 C-0.07619583 16.523373 -0.04205279 8.26170396 0 0 Z " fill="#C6C6E0" transform="translate(385,282)"/>
<path d="M0 0 C4.20938697 4.94145427 4.12531721 9.6755948 4.12939453 15.98999023 C4.13114685 16.67358612 4.13289917 17.35718201 4.13470459 18.06149292 C4.13908863 20.31055272 4.13619696 22.55953321 4.1328125 24.80859375 C4.13348661 26.37891149 4.13445753 27.94922913 4.13571167 29.51954651 C4.13718404 32.80706783 4.13504918 36.09456193 4.13037109 39.38208008 C4.1246788 43.58624919 4.12795257 47.79035438 4.13394356 51.99452114 C4.13756562 55.23652117 4.13640294 58.47850617 4.13381577 61.72050667 C4.1331508 63.27018301 4.1339598 64.81986073 4.13629532 66.36953545 C4.13884835 68.53993186 4.13494385 70.71022636 4.12939453 72.88061523 C4.12859894 74.11351791 4.12780334 75.34642059 4.12698364 76.61668396 C4.00628963 79.83242094 3.60770196 82.84354272 3 86 C2.67 86 2.34 86 2 86 C1.9845388 84.49996178 1.9845388 84.49996178 1.96876526 82.96961975 C1.87120196 73.56625227 1.76848454 64.1629535 1.66066074 54.75969791 C1.60538873 49.92486463 1.55196203 45.09002535 1.50268555 40.25512695 C1.45510493 35.59317516 1.40276467 30.93129933 1.34705925 26.26943779 C1.32660704 24.48677895 1.3078988 22.70409925 1.29092598 20.92140388 C1.26694514 18.43328399 1.2368824 15.94530902 1.20532227 13.45727539 C1.1995668 12.71281158 1.19381134 11.96834778 1.18788147 11.20132446 C1.4355069 7.81286517 1.4355069 7.81286517 0 5 C-0.04063832 3.33382885 -0.042721 1.66611905 0 0 Z " fill="#D3CDDA" transform="translate(189,272)"/>
<path d="M0 0 C3.95807715 -0.11761144 7.91569621 -0.18771882 11.875 -0.25 C13.53789062 -0.30027344 13.53789062 -0.30027344 15.234375 -0.3515625 C22.6837101 -0.43920174 28.32732108 0.65139112 35 4 C34.01 4.33 33.02 4.66 32 5 C31.39897461 4.69465332 30.79794922 4.38930664 30.17871094 4.07470703 C27.36703502 2.68777321 25.26653053 2.7727905 22.140625 2.8046875 C21.13547852 2.80968262 20.13033203 2.81467773 19.09472656 2.81982422 C17.8259668 2.83803223 16.55720703 2.85624023 15.25 2.875 C9.18625 2.936875 9.18625 2.936875 3 3 C2.67 16.2 2.34 29.4 2 43 C0 41 0 41 -0.22705078 37.00927734 C-0.22673337 35.28479831 -0.21539124 33.56029967 -0.1953125 31.8359375 C-0.1924826 30.92872955 -0.18965271 30.02152161 -0.18673706 29.08682251 C-0.17552153 26.18274877 -0.15041463 23.27898088 -0.125 20.375 C-0.11497197 18.40885861 -0.10584581 16.4427124 -0.09765625 14.4765625 C-0.07557772 9.65092341 -0.04103865 4.8255136 0 0 Z " fill="#C8C7DC" transform="translate(385,234)"/>
<path d="M0 0 C3.06303578 -0.08115993 6.12390815 -0.14057409 9.1875 -0.1875 C10.48397461 -0.22520508 10.48397461 -0.22520508 11.80664062 -0.26367188 C16.73038334 -0.32026662 19.96831189 -0.18027571 24 3 C22 4 22 4 19.0625 3.0625 C14.15651796 1.52743585 9.09299997 1.621109 4 2 C2.80428614 2.97633465 2.80428614 2.97633465 2.87974548 4.79066467 C2.88196609 5.57009933 2.88418671 6.349534 2.88647461 7.15258789 C2.88655014 8.03342545 2.88662567 8.914263 2.88670349 9.8217926 C2.89186478 10.77907761 2.89702606 11.73636261 2.90234375 12.72265625 C2.9037587 13.69786728 2.90517365 14.67307831 2.90663147 15.67784119 C2.91224867 18.80609143 2.92480407 21.93427123 2.9375 25.0625 C2.94251278 27.17773334 2.94707607 29.29296781 2.95117188 31.40820312 C2.96222369 36.60549296 2.97897854 41.80274145 3 47 C1.05126503 45.17488721 0.08404359 43.63520005 -0.26815796 40.9732666 C-0.3472857 38.37862376 -0.33665547 35.79864164 -0.29296875 33.203125 C-0.28872391 32.25435486 -0.28447906 31.30558472 -0.28010559 30.32806396 C-0.26333082 27.30175234 -0.22568056 24.2761099 -0.1875 21.25 C-0.17245162 19.19662421 -0.15876348 17.14323797 -0.14648438 15.08984375 C-0.11343117 10.05963852 -0.06165683 5.02993267 0 0 Z " fill="#C8C8DF" transform="translate(640,280)"/>
<path d="M0 0 C1.74216797 0.02707031 1.74216797 0.02707031 3.51953125 0.0546875 C4.39996094 0.07789063 5.28039062 0.10109375 6.1875 0.125 C6.1875 0.455 6.1875 0.785 6.1875 1.125 C5.11822266 1.16367187 5.11822266 1.16367187 4.02734375 1.203125 C-3.32755726 1.63867768 -8.46402 2.553288 -13.6875 8.125 C-15.99223037 12.22229843 -15.93475224 16.08680927 -15.92602539 20.72949219 C-15.92617142 21.38356552 -15.92631744 22.03763885 -15.9264679 22.71153259 C-15.92577341 24.86501426 -15.91800283 27.01840852 -15.91015625 29.171875 C-15.90829042 30.66831414 -15.90686729 32.16475388 -15.90586853 33.66119385 C-15.90205635 37.59358415 -15.89223717 41.52593732 -15.88116455 45.45831299 C-15.87092249 49.47350563 -15.86636492 53.4887043 -15.86132812 57.50390625 C-15.85061372 65.37762117 -15.83355291 73.25130596 -15.8125 81.125 C-16.1425 81.125 -16.4725 81.125 -16.8125 81.125 C-17.71986102 77.249968 -17.94433444 73.64582457 -17.95776367 69.66992188 C-17.96414352 68.38508911 -17.97052338 67.10025635 -17.97709656 65.77648926 C-17.97862514 64.38224322 -17.97973915 62.98799668 -17.98046875 61.59375 C-17.98368447 60.15555793 -17.98704878 58.71736619 -17.99055481 57.2791748 C-17.99653109 54.26993043 -17.99839617 51.26071473 -17.99780273 48.25146484 C-17.997701 44.40138034 -18.01137133 40.55147978 -18.02857494 36.7014389 C-18.03970705 33.7331254 -18.0417216 30.76485628 -18.04119301 27.79652405 C-18.0423706 26.37719588 -18.04677996 24.95786648 -18.05452538 23.53855896 C-18.06435259 21.55242297 -18.06017592 19.56623273 -18.05541992 17.58007812 C-18.05755745 15.88727722 -18.05755745 15.88727722 -18.05973816 14.16027832 C-17.71844737 9.97034044 -16.67649793 7.16775612 -14 3.9375 C-9.58466608 0.27908047 -5.62979905 -0.11373331 0 0 Z " fill="#DDD6DF" transform="translate(245.8125,275.875)"/>
<path d="M0 0 C0 16.5 0 33 0 50 C-15.18 50 -30.36 50 -46 50 C-45.67 47.69 -45.34 45.38 -45 43 C-44.67 43 -44.34 43 -44 43 C-44 44.65 -44 46.3 -44 48 C-29.81 48.33 -15.62 48.66 -1 49 C-1 33.16 -1 17.32 -1 1 C-6.94 1.495 -6.94 1.495 -13 2 C-10 0 -10 0 0 0 Z " fill="#C9C8E7" transform="translate(137,235)"/>
<path d="M0 0 C1.5 1.375 1.5 1.375 3 3 C3 3.66 3 4.32 3 5 C-12.51 5 -28.02 5 -44 5 C-43.67 3.68 -43.34 2.36 -43 1 C-43 1.66 -43 2.32 -43 3 C-28.81 3 -14.62 3 0 3 C0 2.01 0 1.02 0 0 Z " fill="#7988E0" transform="translate(107,362)"/>
<path d="M0 0 C0.144375 0.639375 0.28875 1.27875 0.4375 1.9375 C0.81007181 3.97545146 0.81007181 3.97545146 2 5 C2.08700342 6.63472882 2.10701063 8.27314055 2.09765625 9.91015625 C2.09443359 10.89951172 2.09121094 11.88886719 2.08789062 12.90820312 C2.07951172 13.94912109 2.07113281 14.99003906 2.0625 16.0625 C2.05798828 17.10728516 2.05347656 18.15207031 2.04882812 19.22851562 C2.03699913 21.8190666 2.02051689 24.40950559 2 27 C1.67 27 1.34 27 1 27 C0.67 20.4 0.34 13.8 0 7 C-0.99 9.31 -1.98 11.62 -3 14 C-3.33 13.01 -3.66 12.02 -4 11 C-5.32 11.33 -6.64 11.66 -8 12 C-7.59007812 11.46890625 -7.18015625 10.9378125 -6.7578125 10.390625 C-6.21898437 9.68421875 -5.68015625 8.9778125 -5.125 8.25 C-4.59132813 7.55390625 -4.05765625 6.8578125 -3.5078125 6.140625 C-2.10761086 4.15277397 -1.02144735 2.20156614 0 0 Z " fill="#7B8BDF" transform="translate(550,325)"/>
<path d="M0 0 C0.33 0 0.66 0 1 0 C1.33 8.25 1.66 16.5 2 25 C0 23 0 23 -0.1953125 19.7421875 C-0.17210937 18.46601563 -0.14890625 17.18984375 -0.125 15.875 C-0.10695313 14.59367187 -0.08890625 13.31234375 -0.0703125 11.9921875 C-0.04710937 11.00476563 -0.02390625 10.01734375 0 9 C-2.87420123 11.71604715 -2.87420123 11.71604715 -5 15 C-5.66 15 -6.32 15 -7 15 C-5.45454854 9.52067211 -2.84456788 4.88570819 0 0 Z " fill="#CFCEE4" transform="translate(550,331)"/>
<path d="M0 0 C0.33 0 0.66 0 1 0 C1 1.65 1 3.3 1 5 C15.19 5.33 29.38 5.66 44 6 C44 6.33 44 6.66 44 7 C29.15 7 14.3 7 -1 7 C-0.67 4.69 -0.34 2.38 0 0 Z " fill="#D3D1F0" transform="translate(92,278)"/>
<path d="M0 0 C0.66 0.33 1.32 0.66 2 1 C-2.58154261 3.39542583 -7.0276578 5.50829734 -12 7 C-12 7.99 -12 8.98 -12 10 C-12.99 9.34 -13.98 8.68 -15 8 C-16.9896995 7.60986284 -18.99019869 7.26797351 -21 7 C-21 6.34 -21 5.68 -21 5 C-19.90300781 4.80664062 -18.80601562 4.61328125 -17.67578125 4.4140625 C-16.22130418 4.15131825 -14.76687983 3.88828199 -13.3125 3.625 C-12.59126953 3.49867188 -11.87003906 3.37234375 -11.12695312 3.2421875 C-7.94053156 2.66019269 -5.12396969 2.04985556 -2.10546875 0.8359375 C-1.06326172 0.42214844 -1.06326172 0.42214844 0 0 Z " fill="#7D8BDA" transform="translate(298,258)"/>
<path d="M0 0 C0 0.66 0 1.32 0 2 C-2.31 2.33 -4.62 2.66 -7 3 C-7.33 3.99 -7.66 4.98 -8 6 C-11.79165074 6.0289337 -15.58327327 6.04677601 -19.375 6.0625 C-20.45523437 6.07087891 -21.53546875 6.07925781 -22.6484375 6.08789062 C-24.1953125 6.09272461 -24.1953125 6.09272461 -25.7734375 6.09765625 C-26.72653809 6.10289307 -27.67963867 6.10812988 -28.66162109 6.11352539 C-31 6 -31 6 -33 5 C-33 4.34 -33 3.68 -33 3 C-32.01 3.33 -31.02 3.66 -30 4 C-20.90368423 4.75699217 -13.37692092 3.65532873 -4.765625 0.875 C-2 0 -2 0 0 0 Z " fill="#D2CED9" transform="translate(437,320)"/>
<path d="M0 0 C0.33 0 0.66 0 1 0 C1.33 6.27 1.66 12.54 2 19 C2.66 19.33 3.32 19.66 4 20 C3.11223998 23.69900008 2.05418136 27.34550461 1 31 C0.67 31 0.34 31 0 31 C0 20.77 0 10.54 0 0 Z " fill="#DAD5E0" transform="translate(228,245)"/>
<path d="M0 0 C-0.66666667 2 -1.33333333 4 -2 6 C-3.65 5.01 -5.3 4.02 -7 3 C-7.33 6.3 -7.66 9.6 -8 13 C-8.33 13 -8.66 13 -9 13 C-9.2833062 9.29183659 -9.4412957 5.69925652 -9 2 C-6.0334747 -0.9665253 -3.90740301 -1.59190493 0 0 Z " fill="#7385E0" transform="translate(478,263)"/>
<path d="M0 0 C0.33 10.56 0.66 21.12 1 32 C0.01 32.495 0.01 32.495 -1 33 C-1.33 22.77 -1.66 12.54 -2 2 C-2.66 1.67 -3.32 1.34 -4 1 C-2 0 -2 0 0 0 Z " fill="#7B8AE0" transform="translate(228,245)"/>
<path d="M0 0 C1.74216797 0.02707031 1.74216797 0.02707031 3.51953125 0.0546875 C4.39996094 0.07789063 5.28039062 0.10109375 6.1875 0.125 C6.1875 0.455 6.1875 0.785 6.1875 1.125 C5.11822266 1.16367187 5.11822266 1.16367187 4.02734375 1.203125 C-2.45009469 1.58671489 -6.4510617 2.47922196 -11.8125 6.125 C-13.2665625 6.99125 -13.2665625 6.99125 -14.75 7.875 C-15.7709375 8.49375 -15.7709375 8.49375 -16.8125 9.125 C-15.09030575 5.28318206 -13.45472991 2.93728576 -9.6328125 1.046875 C-6.2810251 -0.0487231 -3.51869863 -0.07108482 0 0 Z " fill="#BFBCD6" transform="translate(245.8125,275.875)"/>
<path d="M0 0 C-0.639375 0.268125 -1.27875 0.53625 -1.9375 0.8125 C-4.33131686 1.88667752 -4.33131686 1.88667752 -5 5 C-4.34 5 -3.68 5 -3 5 C-3.33 5.66 -3.66 6.32 -4 7 C-4.515625 6.525625 -5.03125 6.05125 -5.5625 5.5625 C-8.66782675 3.57190593 -11.36632504 3.34939182 -15 3 C-15 2.34 -15 1.68 -15 1 C-14.06027344 0.90912109 -14.06027344 0.90912109 -13.1015625 0.81640625 C-11.87566406 0.69072266 -11.87566406 0.69072266 -10.625 0.5625 C-9.81289063 0.48128906 -9.00078125 0.40007812 -8.1640625 0.31640625 C-1.96601942 -0.58980583 -1.96601942 -0.58980583 0 0 Z " fill="#818FDA" transform="translate(549,262)"/>
<path d="M0 0 C3.13217778 3.39590209 3.35738037 5.74512078 3.29296875 10.296875 C3.28330078 11.50214844 3.27363281 12.70742188 3.26367188 13.94921875 C3.23853516 15.20347656 3.21339844 16.45773437 3.1875 17.75 C3.17396484 19.01972656 3.16042969 20.28945313 3.14648438 21.59765625 C3.1111324 24.73219844 3.06178248 27.86588545 3 31 C2.67 31 2.34 31 2 31 C1.97494385 30.2479126 1.9498877 29.4958252 1.92407227 28.72094727 C1.80849486 25.33460804 1.68559655 21.94857387 1.5625 18.5625 C1.52318359 17.37849609 1.48386719 16.19449219 1.44335938 14.97460938 C1.40146484 13.84990234 1.35957031 12.72519531 1.31640625 11.56640625 C1.27974854 10.52427979 1.24309082 9.48215332 1.20532227 8.40844727 C1.26484659 6.0500174 1.26484659 6.0500174 0 5 C-0.04063832 3.33382885 -0.042721 1.66611905 0 0 Z " fill="#DED4D9" transform="translate(189,272)"/>
<path d="M0 0 C2.89640118 -0.08120751 5.79050912 -0.14059421 8.6875 -0.1875 C9.50412109 -0.21263672 10.32074219 -0.23777344 11.16210938 -0.26367188 C15.97846486 -0.32217012 19.03975154 -0.07302376 23 3 C21 4 21 4 18.0625 3.0625 C13.20540412 1.56958211 8.02316976 1.25612295 3 2 C1.17576924 3.41003188 1.17576924 3.41003188 0 5 C0 3.35 0 1.7 0 0 Z " fill="#DAD4D6" transform="translate(641,280)"/>
<path d="M0 0 C2.9156164 3.54039134 5.50127818 7.1626772 8 11 C6.68 10.67 5.36 10.34 4 10 C3.67 11.32 3.34 12.64 3 14 C2.49307308 12.4188708 1.99473557 10.83498617 1.5 9.25 C1.2215625 8.36828125 0.943125 7.4865625 0.65625 6.578125 C0 4 0 4 0 0 Z " fill="#6D80E0" transform="translate(386,277)"/>
<path d="M0 0 C0.66 0.33 1.32 0.66 2 1 C1.0479279 2.00596297 0.08812654 3.00461563 -0.875 4 C-1.40867187 4.556875 -1.94234375 5.11375 -2.4921875 5.6875 C-4 7 -4 7 -6 7 C-6.226875 7.721875 -6.45375 8.44375 -6.6875 9.1875 C-8.24831013 12.53209313 -10.3031287 14.51603959 -13 17 C-10.81081659 9.99461307 -5.93449363 4.18905433 0 0 Z " fill="#DD7AA5" transform="translate(548,50)"/>
<path d="M0 0 C0.33 0 0.66 0 1 0 C1 1.98 1 3.96 1 6 C1.66 6 2.32 6 3 6 C3 6.99 3 7.98 3 9 C2.01 9.33 1.02 9.66 0 10 C-0.33 11.98 -0.66 13.96 -1 16 C-1.66 16 -2.32 16 -3 16 C-2.52013969 10.43109483 -1.70084819 5.32932432 0 0 Z " fill="#CAC7D9" transform="translate(274,257)"/>
<path d="M0 0 C0.99 0.33 1.98 0.66 3 1 C2.34 1 1.68 1 1 1 C1.04125 2.175625 1.0825 3.35125 1.125 4.5625 C1.125 8.65768129 0.39480307 12.12554703 -1 16 C-1.66 16.66 -2.32 17.32 -3 18 C-2.32418477 11.91766294 -1.26361972 5.98685848 0 0 Z " fill="#D5D1E0" transform="translate(471,266)"/>
<path d="M0 0 C0.66 0.33 1.32 0.66 2 1 C0.57282151 2.67551353 -0.86708482 4.34019309 -2.3125 6 C-3.51326172 7.3921875 -3.51326172 7.3921875 -4.73828125 8.8125 C-7 11 -7 11 -10 11 C-8.52116808 9.35386588 -7.04192523 7.70810092 -5.5625 6.0625 C-4.73878906 5.14597656 -3.91507813 4.22945313 -3.06640625 3.28515625 C-1 1 -1 1 0 0 Z " fill="#7284E3" transform="translate(733,254)"/>
<path d="M0 0 C0.33 0.99 0.66 1.98 1 3 C-0.11878383 4.17262904 -1.24523051 5.33795138 -2.375 6.5 C-3.00148438 7.1496875 -3.62796875 7.799375 -4.2734375 8.46875 C-6 10 -6 10 -8 10 C-8 10.66 -8 11.32 -8 12 C-8.66 11.67 -9.32 11.34 -10 11 C-8.89718873 9.72799029 -7.79269231 8.45744147 -6.6875 7.1875 C-6.07261719 6.47980469 -5.45773438 5.77210938 -4.82421875 5.04296875 C-3.26665665 3.29863261 -1.67341125 1.63221959 0 0 Z " fill="#6F81E3" transform="translate(83,220)"/>
<path d="M0 0 C0.33 0 0.66 0 1 0 C1.25 2.75 1.25 2.75 1 6 C-0.9375 8.25 -0.9375 8.25 -3 10 C-3.33 10.66 -3.66 11.32 -4 12 C-4.66 12 -5.32 12 -6 12 C-4.68315519 7.39104317 -2.84801255 3.85859765 0 0 Z " fill="#DBD5DB" transform="translate(549,334)"/>
<path d="M0 0 C3.96 0 7.92 0 12 0 C12.33 0.66 12.66 1.32 13 2 C8.05 2.33 3.1 2.66 -2 3 C-1.34 2.67 -0.68 2.34 0 2 C0 1.34 0 0.68 0 0 Z " fill="#8492DD" transform="translate(757,274)"/>
<path d="M0 0 C6.75 0.75 6.75 0.75 9 3 C6.69 3 4.38 3 2 3 C1.34 5.31 0.68 7.62 0 10 C-0.66 10 -1.32 10 -2 10 C-1.34 6.7 -0.68 3.4 0 0 Z " fill="#DC79A4" transform="translate(635,58)"/>
<path d="M0 0 C0.75 1.625 0.75 1.625 1 4 C-0.85182291 7.5611979 -2.12683167 9.56341583 -5.75 11.375 C-6.4925 11.58125 -7.235 11.7875 -8 12 C-7.236875 11.13375 -6.47375 10.2675 -5.6875 9.375 C-3.24779927 6.46399345 -1.57001723 3.47056439 0 0 Z " fill="#CFCBDC" transform="translate(333,220)"/>
<path d="M0 0 C0 0.66 0 1.32 0 2 C-1.40751221 2.86916887 -2.8264521 3.71985149 -4.25 4.5625 C-5.03890625 5.03816406 -5.8278125 5.51382813 -6.640625 6.00390625 C-9.30844625 7.13022151 -10.34501768 7.0169313 -13 6 C-11.21118264 4.99491199 -9.41885304 3.99607264 -7.625 3 C-6.62726563 2.443125 -5.62953125 1.88625 -4.6015625 1.3125 C-2 0 -2 0 0 0 Z " fill="#818FDF" transform="translate(224,247)"/>
<path d="M0 0 C1.32 1.32 2.64 2.64 4 4 C3.01 4 2.02 4 1 4 C1 4.99 1 5.98 1 7 C1.66 7 2.32 7 3 7 C3 8.65 3 10.3 3 12 C0.17216424 8.80331609 -0.63139654 6.23893982 -1 2 C-0.67 1.34 -0.34 0.68 0 0 Z " fill="#7386E1" transform="translate(642,327)"/>
<path d="M0 0 C1.32 0 2.64 0 4 0 C3.375 2.4375 3.375 2.4375 2 5 C-1.125 5.8125 -1.125 5.8125 -4 6 C-2.36587557 4.29159719 -1.13093906 3.06546953 1 2 C0.67 1.34 0.34 0.68 0 0 Z " fill="#CCCADD" transform="translate(596,350)"/>
<path d="M0 0 C6.875 0.875 6.875 0.875 8 2 C10.32817964 2.36760731 12.6618385 2.70241581 15 3 C15 3.33 15 3.66 15 4 C9.158256 4.35050464 5.1468192 4.16727335 0 1 C0 0.67 0 0.34 0 0 Z " fill="#CBCCE6" transform="translate(649,333)"/>
<path d="M0 0 C0.33 0.66 0.66 1.32 1 2 C0.14453125 3.91015625 0.14453125 3.91015625 -1.1875 6.0625 C-1.82751953 7.13177734 -1.82751953 7.13177734 -2.48046875 8.22265625 C-4.25241746 10.29524408 -5.34385824 10.63030147 -8 11 C-7.59007812 10.45730469 -7.18015625 9.91460937 -6.7578125 9.35546875 C-6.21898437 8.64003906 -5.68015625 7.92460937 -5.125 7.1875 C-4.59132813 6.47980469 -4.05765625 5.77210938 -3.5078125 5.04296875 C-2.29185219 3.39543703 -1.13583859 1.70375789 0 0 Z " fill="#CCC9DA" transform="translate(461,297)"/>
<path d="M0 0 C2.56616632 3.84924948 2.55097676 6.4349304 3 11 C1.68 11 0.36 11 -1 11 C-1 10.34 -1 9.68 -1 9 C-0.34 9 0.32 9 1 9 C0.67 6.03 0.34 3.06 0 0 Z " fill="#DF84A9" transform="translate(202,129)"/>
<path d="M0 0 C0.33 0 0.66 0 1 0 C1 1.65 1 3.3 1 5 C3.31 5.33 5.62 5.66 8 6 C8 6.33 8 6.66 8 7 C5.03 7 2.06 7 -1 7 C-0.67 4.69 -0.34 2.38 0 0 Z " fill="#CDC9E4" transform="translate(92,278)"/>
<path d="M0 0 C-3.03525486 2.02350324 -4.19426202 2.32124018 -7.6875 2.625 C-8.49574219 2.69976562 -9.30398438 2.77453125 -10.13671875 2.8515625 C-10.75160156 2.90054687 -11.36648438 2.94953125 -12 3 C-4.82142857 -1.78571429 -4.82142857 -1.78571429 0 0 Z " fill="#7E8DDE" transform="translate(562,258)"/>
<path d="M0 0 C-3.42346555 3.14958831 -6.44262737 3.56179109 -11 4 C-9.71264403 1.42528807 -8.71510189 1.29583343 -6.0625 0.3125 C-5.35222656 0.04050781 -4.64195313 -0.23148438 -3.91015625 -0.51171875 C-2 -1 -2 -1 0 0 Z " fill="#8692DF" transform="translate(110,205)"/>
<path d="M0 0 C0.66 0 1.32 0 2 0 C2.33 2.31 2.66 4.62 3 7 C1.68 6.67 0.36 6.34 -1 6 C-0.67 4.02 -0.34 2.04 0 0 Z " fill="#DD7EA5" transform="translate(284,114)"/>
<path d="M0 0 C2.64 0 5.28 0 8 0 C7.67 0.66 7.34 1.32 7 2 C4.6875 2.5625 4.6875 2.5625 2 3 C0.66457061 3.32483418 -0.66961551 3.6550855 -2 4 C-1.34 2.68 -0.68 1.36 0 0 Z " fill="#DA709F" transform="translate(362,34)"/>
<path d="M0 0 C0.33 0.99 0.66 1.98 1 3 C-1.97 5.475 -1.97 5.475 -5 8 C-5.66 7.67 -6.32 7.34 -7 7 C-4.69 4.69 -2.38 2.38 0 0 Z " fill="#CECDDD" transform="translate(807,350)"/>
<path d="M0 0 C1.65 1.65 3.3 3.3 5 5 C4.01 5.495 4.01 5.495 3 6 C2.34 5.67 1.68 5.34 1 5 C0.67 6.32 0.34 7.64 0 9 C0 6.03 0 3.06 0 0 Z " fill="#7687DF" transform="translate(389,282)"/>
<path d="M0 0 C0.33 0 0.66 0 1 0 C1 1.98 1 3.96 1 6 C1.66 6 2.32 6 3 6 C3 6.99 3 7.98 3 9 C1.68 9.33 0.36 9.66 -1 10 C-0.67 6.7 -0.34 3.4 0 0 Z " fill="#E1D6D5" transform="translate(274,257)"/>
<path d="M0 0 C0.66 0 1.32 0 2 0 C2 1.65 2 3.3 2 5 C0.02 5.99 0.02 5.99 -2 7 C-1.34 4.69 -0.68 2.38 0 0 Z " fill="#F6D5D5" transform="translate(423,64)"/>
</svg>
